<?xml version="1.0" standalone="no"?>
<!DOCTYPE svg PUBLIC "-//W3C//DTD SVG 20010904//EN"
 "http://www.w3.org/TR/2001/REC-SVG-20010904/DTD/svg10.dtd">
<svg version="1.0" xmlns="http://www.w3.org/2000/svg"
 width="512.000000pt" height="512.000000pt" viewBox="0 0 512.000000 512.000000"
 preserveAspectRatio="xMidYMid meet">
<metadata>
Created by potrace 1.14, written by Peter Selinger 2001-2017
</metadata>
<g transform="translate(0.000000,512.000000) scale(0.100000,-0.100000)"
fill="#000000" stroke="none">
<path d="M2811 4588 c-84 -15 -142 -83 -156 -183 -4 -27 -9 -59 -11 -70 -2
-10 -6 -37 -9 -60 -3 -22 -8 -47 -10 -55 -2 -8 -6 -37 -10 -65 -3 -27 -8 -57
-10 -65 -2 -8 -6 -35 -9 -60 -3 -25 -7 -54 -10 -65 -4 -22 -14 -91 -21 -145
-2 -19 -14 -93 -25 -165 -26 -162 -25 -151 -50 -320 -27 -179 -27 -181 -36
-235 -4 -25 -8 -54 -10 -65 -7 -52 -26 -182 -45 -300 -11 -71 -22 -141 -24
-155 -8 -57 -18 -116 -20 -130 -3 -19 -19 -122 -21 -135 -3 -29 -16 -116 -24
-160 -5 -27 -12 -70 -15 -95 -3 -25 -8 -56 -10 -70 -23 -147 -35 -222 -40
-260 -3 -25 -12 -85 -20 -135 -8 -49 -17 -106 -19 -125 -3 -19 -7 -46 -10 -59
-3 -14 -8 -47 -11 -75 -3 -28 -8 -60 -10 -71 -3 -11 -7 -37 -10 -57 -10 -76
-16 -114 -25 -168 -6 -30 -13 -75 -16 -100 -3 -25 -12 -85 -20 -133 -16 -93
-12 -146 14 -187 83 -133 285 -113 331 33 5 18 17 82 26 142 22 147 38 254 50
325 15 95 35 223 41 265 3 28 7 57 9 65 2 8 8 51 15 95 7 44 13 87 15 95 2 8
8 51 15 95 6 44 13 91 15 105 3 14 7 43 10 65 3 22 10 65 15 95 5 30 12 73 15
95 3 22 12 81 20 130 8 50 16 106 19 125 2 19 9 64 15 100 6 36 13 81 15 100
18 127 27 183 31 200 2 8 7 38 10 66 3 28 7 59 9 70 2 10 7 39 11 64 3 25 9
58 11 73 8 53 53 342 58 382 4 23 8 51 11 64 2 12 9 55 14 94 6 40 17 117 26
172 8 55 20 132 25 170 6 39 12 77 15 85 2 8 7 40 10 70 3 30 8 62 10 70 2 8
7 35 10 60 3 25 10 70 15 100 5 30 11 76 13 102 11 118 -96 217 -212 196z"/>
<path d="M3698 3993 c-117 -34 -171 -175 -104 -272 14 -20 50 -63 82 -96 31
-33 93 -98 138 -145 44 -47 144 -153 221 -235 77 -82 151 -160 165 -175 230
-243 305 -322 326 -346 15 -16 55 -59 91 -96 55 -57 63 -69 52 -81 -8 -8 -79
-83 -159 -168 -80 -84 -177 -187 -216 -229 -40 -41 -86 -91 -104 -110 -33 -36
-249 -265 -330 -350 -288 -303 -300 -319 -294 -398 6 -81 67 -153 142 -168 17
-4 53 -3 79 1 42 6 55 15 128 89 73 74 326 341 405 426 18 19 96 103 175 185
78 83 154 163 169 179 14 16 91 97 170 180 279 295 271 284 282 354 12 81 -4
106 -219 332 -40 41 -110 116 -156 165 -47 50 -123 131 -170 180 -93 98 -360
381 -401 424 -198 211 -310 325 -330 336 -53 27 -93 33 -142 18z"/>
<path d="M1290 3981 c-28 -15 -179 -167 -331 -332 -25 -28 -262 -279 -339
-359 -25 -26 -108 -114 -185 -196 -134 -142 -214 -227 -340 -359 -73 -76 -99
-133 -91 -192 8 -60 24 -87 102 -168 83 -88 301 -318 344 -365 18 -19 97 -102
175 -185 79 -82 157 -166 175 -185 99 -107 317 -336 395 -415 92 -94 112 -105
188 -105 104 0 190 114 166 221 -12 53 -15 56 -155 206 -157 168 -155 166
-258 274 -49 52 -123 130 -164 174 -42 44 -119 125 -171 180 -198 208 -346
367 -353 378 -3 7 30 50 80 103 48 51 143 151 212 224 69 73 145 153 169 179
208 220 305 322 337 357 22 23 91 96 154 163 133 142 149 164 154 217 12 145
-139 251 -264 185z"/>
</g>
</svg>
